<svg id="Layer_1" data-name="Layer 1" xmlns="http://www.w3.org/2000/svg" viewBox="0 0 1183.76 477.65"><defs><style>.cls-1{fill:none;stroke:#707070;}.cls-17,.cls-2,.cls-3,.cls-4{fill:#fff;}.cls-2{opacity:0.7;}.cls-17,.cls-2,.cls-22,.cls-3,.cls-4,.cls-5,.cls-6{isolation:isolate;}.cls-3{opacity:0.68;}.cls-4{opacity:0.76;}.cls-6{font-size:28.07px;fill:#927c85;}.cls-22,.cls-6{font-family:RaisonnePro-Book, Raisonne Pro;}.cls-7{letter-spacing:-0.05em;}.cls-8{letter-spacing:0em;}.cls-9{letter-spacing:-0.04em;}.cls-10{letter-spacing:-0.01em;}.cls-11{letter-spacing:0em;}.cls-12{letter-spacing:-0.02em;}.cls-13{letter-spacing:-0.03em;}.cls-14{letter-spacing:-0.04em;}.cls-15{letter-spacing:-0.08em;}.cls-16{letter-spacing:-0.04em;}.cls-17{opacity:0.63;}.cls-18{letter-spacing:-0.04em;}.cls-19{letter-spacing:-0.04em;}.cls-20{letter-spacing:-0.02em;}.cls-21{letter-spacing:-0.01em;}.cls-22{font-size:72.17px;fill:#c14e49;}.cls-23{letter-spacing:-0.03em;}.cls-24{letter-spacing:-0.03em;}.cls-25{letter-spacing:-0.01em;}.cls-26{letter-spacing:-0.03em;}.cls-27{letter-spacing:-0.04em;}</style></defs><title>joinprocess</title><path id="Path_1233" data-name="Path 1233" class="cls-1" d="M120.28,425.93V535" transform="translate(-68.47 -233)"/><ellipse id="Ellipse_460" data-name="Ellipse 460" class="cls-2" cx="397.72" cy="294.28" rx="47.31" ry="48.51"/><ellipse id="Ellipse_461" data-name="Ellipse 461" class="cls-3" cx="766.98" cy="338.39" rx="50.12" ry="48.51"/><ellipse id="Ellipse_462" data-name="Ellipse 462" class="cls-4" cx="1088.93" cy="338.39" rx="53.72" ry="48.51"/><g id="Personal_Details_" data-name="Personal Details " class="cls-5"><text class="cls-6" transform="translate(122.69 163.98)"><tspan class="cls-7">P</tspan><tspan class="cls-8" x="13.64" y="0">e</tspan><tspan class="cls-9" x="30.09" y="0">r</tspan><tspan class="cls-10" x="38.79" y="0">s</tspan><tspan class="cls-11" x="49.87" y="0">onal </tspan><tspan class="cls-12" x="110.01" y="0">D</tspan><tspan class="cls-13" x="127.13" y="0">e</tspan><tspan class="cls-14" x="142.79" y="0">t</tspan><tspan x="152.23" y="0">ails</tspan></text></g><g id="Verify_your_ID_And_email" data-name="Verify your ID And email" class="cls-5"><text class="cls-6" transform="translate(315.29 386.9)"><tspan class="cls-15">V</tspan><tspan x="15.13" y="0">erify </tspan><tspan class="cls-16" x="77.09" y="0">y</tspan><tspan x="89.72" y="0">our ID</tspan></text><text class="cls-6" transform="translate(337.69 422.18)">And email</text></g><path id="Path_1234" data-name="Path 1234" class="cls-17" d="M674.24,233C763,233,835,305.43,835,394.78S763,556.55,674.24,556.55,513.5,484.12,513.5,394.78,585.47,233,674.24,233Z" transform="translate(-68.47 -233)"/><ellipse id="Ellipse_465" data-name="Ellipse 465" class="cls-4" cx="52.12" cy="143.93" rx="52.12" ry="48.91"/><g id="Select_your_goal_aims_" data-name="Select your goal aims " class="cls-5"><text class="cls-6" transform="translate(697.41 435.01)">Sele<tspan class="cls-18" x="53.04" y="0">c</tspan><tspan x="68.59" y="0">t </tspan><tspan class="cls-19" x="85.46" y="0">y</tspan><tspan x="98.09" y="0">our </tspan></text><text class="cls-6" transform="translate(703.32 470.29)"><tspan class="cls-20">g</tspan><tspan x="13.98" y="0">oal/ aims</tspan></text></g><g id="Confirmation" class="cls-5"><text class="cls-6" transform="translate(1019.97 418.17)"><tspan class="cls-21">C</tspan><tspan x="21.69" y="0">onfirmation</tspan></text></g><path id="Path_1238" data-name="Path 1238" class="cls-1" d="M1090.73,569.78H886" transform="translate(-68.47 -233)"/><g id="Group_2" data-name="Group 2"><g id="Join_Finvestor_in_under_5_minutes_" data-name="Join Finvestor in under 5 minutes " class="cls-5"><text class="cls-22" transform="translate(112.26 73.77)">Join Fi<tspan class="cls-23" x="200.41" y="0">n</tspan><tspan class="cls-24" x="236.71" y="0">v</tspan><tspan class="cls-25" x="269.54" y="0">e</tspan><tspan class="cls-26" x="310.82" y="0">s</tspan><tspan class="cls-27" x="338.32" y="0">t</tspan><tspan x="362.57" y="0">or in under 5 minu</tspan><tspan class="cls-27" x="918.97" y="0">t</tspan><tspan class="cls-25" x="943.22" y="0">e</tspan><tspan x="984.5" y="0">s</tspan></text></g></g><path id="Path_1238-2" data-name="Path 1238" class="cls-1" d="M419,534.92H120.79" transform="translate(-68.47 -233)"/></svg>